Screenlist :
 
http://bayimg.com/faHKeaADm


      Format : AVI
      Format/Info : Audio Video Interleave
      File size : 1.99 GiB
      Duration : 1h 9mn
      Overall bit rate : 4 078 Kbps

     
      Format : MPEG-4 Visual
      Format profile : Simple@L3
      Format settings, BVOP : No
      Format settings, QPel : No
      Format settings, GMC : No warppoints
      Format settings, Matrix : Default (H.263)
      Codec ID : XVID
      Codec ID/Hint : XviD
      Duration : 1h 9mn
      Bit rate : 3 810 Kbps
      Width : 720 pixels
      Height : 576 pixels
      Display aspect ratio : 5:4
      Frame rate : 25.000 fps
      Standard : PAL
      Color space : YUV
      Chroma subsampling : 4:2:0
      Bit depth : 8 bits
      Scan type : Progressive
      Bits/(Pixel*Frame) : 0.367
      Stream size : 1.86 GiB (93%)
      Writing library : XviD 1.2.1 (UTC 2008-12-04)

    
      Format : MPEG Audio
      Format version : Version 1
      Format profile : Layer 3
      Mode : Joint stereo
      Mode extension : MS Stereo
      Codec ID : 55
      Codec ID/Hint : MP3
      Duration : 1h 9mn
      Bit rate mode : Constant
      Bit rate : 256 Kbps
      Channel(s) : 2 channels
      Sampling rate : 44.1 KHz
      Stream size : 128 MiB (6%)
      Alignment : Aligned on interleaves
      Interleave, duration : 26 ms (0.65 video frame)
      Writing library : LAME3.98.2